<svg width="27" height="26" viewBox="0 0 27 26" fill="none" xmlns="http://www.w3.org/2000/svg">
<ellipse cx="13.5034" cy="12.7904" rx="12.6284" ry="12.6" fill="#1E293B"/>
<path d="M19.1016 10.0756C18.7237 10.2432 18.3247 10.348 17.9047 10.4108C18.3247 10.1594 18.6607 9.76135 18.8077 9.27947C18.4087 9.50993 17.9677 9.67754 17.4848 9.7823C17.1068 9.38423 16.5608 9.13281 15.9729 9.13281C14.839 9.13281 13.9151 10.0547 13.9151 11.186C13.9151 11.3536 13.9361 11.5003 13.9781 11.6469C12.2772 11.5631 10.7443 10.746 9.7154 9.48898C9.54742 9.80325 9.44243 10.1385 9.44243 10.5156C9.44243 11.2279 9.7994 11.8565 10.3664 12.2336C10.0304 12.2126 9.7154 12.1288 9.42143 11.9822V12.0031C9.42143 13.0088 10.1354 13.8468 11.0803 14.0354C10.9123 14.0773 10.7233 14.0982 10.5343 14.0982C10.4083 14.0982 10.2614 14.0773 10.1354 14.0563C10.4083 14.8734 11.1643 15.481 12.0672 15.481C11.3533 16.0257 10.4713 16.3609 9.50542 16.3609C9.33744 16.3609 9.16945 16.3609 9.02246 16.34C9.94639 16.9266 11.0173 17.2618 12.1932 17.2618C15.9939 17.2618 18.0727 14.1192 18.0727 11.3955C18.0727 11.3117 18.0727 11.207 18.0727 11.1232C18.4717 10.8508 18.8287 10.4946 19.1016 10.0756Z" fill="white"/>
</svg>
