<svg width="27" height="26" viewBox="0 0 27 26" fill="none" xmlns="http://www.w3.org/2000/svg">
<path d="M25.7118 12.7904C25.7118 19.472 20.2828 24.8904 13.5834 24.8904C6.88407 24.8904 1.45508 19.472 1.45508 12.7904C1.45508 6.10884 6.88407 0.69043 13.5834 0.69043C20.2828 0.69043 25.7118 6.10884 25.7118 12.7904Z" fill="#1E293B" stroke="white"/>
<path d="M14.1838 13.4661V18.2142H12.6677V13.4661V13.2161H12.4177H10.9819V11.7682H12.4177H12.6677V11.5182V10.0816C12.6677 9.29997 12.9058 8.72583 13.2898 8.3471C13.6747 7.96754 14.234 7.75684 14.9287 7.75684C15.4471 7.75684 15.9102 7.78526 16.1851 7.80907V9.07587L15.4013 9.07623C15.4013 9.07623 15.4013 9.07623 15.4012 9.07623C14.9628 9.07624 14.6316 9.17985 14.4225 9.42766C14.2214 9.66599 14.1838 9.98176 14.1838 10.2745V11.5182V11.7682H14.4338H16.0826L15.8955 13.2161H14.4338H14.1838V13.4661Z" fill="white" stroke="white" stroke-width="0.5"/>
</svg>
