<svg width="26" height="26" viewBox="0 0 26 26" fill="none" xmlns="http://www.w3.org/2000/svg">
<ellipse cx="12.666" cy="12.7904" rx="12.6284" ry="12.6" fill="#1E293B"/>
<path d="M12.6676 7.7934C14.2991 7.7934 14.4923 7.7995 15.1369 7.82882C15.5244 7.83356 15.9082 7.90455 16.2717 8.03873C16.5352 8.14015 16.7746 8.29552 16.9744 8.49482C17.1741 8.69413 17.3298 8.93297 17.4315 9.19595C17.566 9.5586 17.6371 9.94157 17.6419 10.3282C17.671 10.9713 17.6774 11.164 17.6774 12.7919C17.6774 14.4197 17.6713 14.6125 17.6419 15.2556C17.6371 15.6422 17.566 16.0252 17.4315 16.3878C17.3298 16.6508 17.1741 16.8896 16.9744 17.089C16.7746 17.2883 16.5352 17.4436 16.2717 17.545C15.9082 17.6792 15.5244 17.7502 15.1369 17.755C14.4926 17.784 14.2994 17.7904 12.6676 17.7904C11.0358 17.7904 10.8426 17.7843 10.1984 17.755C9.81089 17.7502 9.42706 17.6792 9.0636 17.545C8.80002 17.4436 8.56065 17.2883 8.36089 17.089C8.16113 16.8896 8.00542 16.6508 7.90377 16.3878C7.76929 16.0252 7.69813 15.6422 7.69339 15.2556C7.66429 14.6125 7.65789 14.4197 7.65789 12.7919C7.65789 11.164 7.664 10.9713 7.69339 10.3282C7.69813 9.94157 7.76929 9.5586 7.90377 9.19595C8.00542 8.93297 8.16113 8.69413 8.36089 8.49482C8.56065 8.29552 8.80002 8.14015 9.0636 8.03873C9.42706 7.90455 9.81089 7.83356 10.1984 7.82882C10.8429 7.79979 11.0361 7.7934 12.6676 7.7934ZM12.6676 6.69482C11.0091 6.69482 10.8001 6.70179 10.1484 6.7314C9.6412 6.74147 9.13943 6.83728 8.66438 7.01476C8.25687 7.16795 7.88776 7.40802 7.58282 7.71821C7.27165 8.02258 7.03084 8.39106 6.8772 8.79792C6.69932 9.2719 6.6033 9.77255 6.59321 10.2786C6.56411 10.9283 6.55713 11.1368 6.55713 12.7916C6.55713 14.4464 6.56411 14.6549 6.59379 15.3052C6.60388 15.8112 6.69991 16.3119 6.87778 16.7859C7.03125 17.1927 7.27186 17.5611 7.58282 17.8656C7.88793 18.1758 8.25724 18.4159 8.66496 18.569C9.14001 18.7465 9.64178 18.8423 10.1489 18.8524C10.8007 18.8814 11.0088 18.889 12.6682 18.889C14.3277 18.889 14.5357 18.882 15.1875 18.8524C15.6946 18.8423 16.1964 18.7465 16.6715 18.569C17.0773 18.4121 17.4457 18.1724 17.7534 17.8652C18.061 17.5581 18.301 17.1903 18.4581 16.7853C18.6359 16.3113 18.732 15.8106 18.7421 15.3046C18.7711 14.6549 18.7781 14.4464 18.7781 12.7916C18.7781 11.1368 18.7711 10.9283 18.7415 10.278C18.7314 9.77197 18.6354 9.27132 18.4575 8.79734C18.304 8.39053 18.0634 8.02205 17.7524 7.71763C17.4473 7.40737 17.078 7.1673 16.6703 7.01418C16.1953 6.8367 15.6935 6.74089 15.1863 6.73082C14.5351 6.70179 14.3262 6.69482 12.6676 6.69482Z" fill="white"/>
<path d="M12.6691 9.66211C12.0485 9.66211 11.4418 9.84573 10.9258 10.1898C10.4098 10.5338 10.0076 11.0227 9.77011 11.5948C9.53261 12.1669 9.47047 12.7964 9.59154 13.4037C9.71262 14.0111 10.0115 14.5689 10.4503 15.0068C10.8892 15.4446 11.4483 15.7428 12.057 15.8636C12.6657 15.9844 13.2966 15.9224 13.87 15.6855C14.4433 15.4485 14.9334 15.0472 15.2782 14.5323C15.623 14.0175 15.807 13.4122 15.807 12.7929C15.807 11.9626 15.4764 11.1663 14.888 10.5791C14.2995 9.99196 13.5014 9.66211 12.6691 9.66211ZM12.6691 14.8252C12.2663 14.8252 11.8725 14.706 11.5375 14.4827C11.2026 14.2594 10.9415 13.942 10.7874 13.5707C10.6332 13.1993 10.5929 12.7907 10.6714 12.3965C10.75 12.0023 10.944 11.6401 11.2289 11.3559C11.5137 11.0717 11.8767 10.8782 12.2718 10.7997C12.6669 10.7213 13.0764 10.7616 13.4486 10.9154C13.8208 11.0692 14.1389 11.3297 14.3627 11.6639C14.5865 11.9981 14.706 12.391 14.706 12.7929C14.706 13.3319 14.4914 13.8488 14.1094 14.23C13.7274 14.6111 13.2093 14.8252 12.6691 14.8252Z" fill="white"/>
<path d="M15.93 10.2689C16.335 10.2689 16.6633 9.94134 16.6633 9.53728C16.6633 9.13322 16.335 8.80566 15.93 8.80566C15.5251 8.80566 15.1968 9.13322 15.1968 9.53728C15.1968 9.94134 15.5251 10.2689 15.93 10.2689Z" fill="white"/>
</svg>
