<svg width="26" height="26" viewBox="0 0 26 26" fill="none" xmlns="http://www.w3.org/2000/svg">
<ellipse cx="12.7475" cy="12.7904" rx="12.6284" ry="12.6" fill="#1E293B"/>
<path fill-rule="evenodd" clip-rule="evenodd" d="M13.2962 6.69482C10.0571 6.69482 7.45117 9.29488 7.45117 12.5267C7.45117 15.1025 9.13162 17.2895 11.4453 18.067C11.7375 18.1156 11.8349 17.9455 11.8349 17.7754C11.8349 17.6297 11.8349 17.2652 11.8349 16.7792C10.2032 17.1437 9.86225 16.0016 9.86225 16.0016C9.59435 15.3212 9.20468 15.1511 9.20468 15.1511C8.66889 14.7866 9.25339 14.7866 9.25339 14.7866C9.8379 14.8352 10.1545 15.3941 10.1545 15.3941C10.6659 16.2932 11.5183 16.0259 11.8593 15.8801C11.908 15.4913 12.0541 15.2483 12.2246 15.1025C10.9338 14.9567 9.57 14.4464 9.57 12.2108C9.57 11.579 9.78919 11.0445 10.1789 10.6557C10.1301 10.5099 9.91096 9.92667 10.2276 9.10049C10.2276 9.10049 10.7147 8.95469 11.8349 9.70798C12.2977 9.58648 12.8091 9.51358 13.2962 9.51358C13.7833 9.51358 14.2947 9.58648 14.7575 9.70798C15.8778 8.95469 16.3649 9.10049 16.3649 9.10049C16.6815 9.90237 16.4866 10.4856 16.4136 10.6557C16.7789 11.0688 17.0224 11.579 17.0224 12.2108C17.0224 14.4464 15.6586 14.9324 14.3434 15.0782C14.5626 15.2483 14.7331 15.6128 14.7331 16.1474C14.7331 16.925 14.7331 17.5568 14.7331 17.7511C14.7331 17.8969 14.8305 18.0913 15.1471 18.0427C17.4608 17.2895 19.1412 15.1025 19.1412 12.5267C19.1412 9.29488 16.5353 6.69482 13.2962 6.69482Z" fill="white"/>
</svg>
