<svg width="50" height="27" viewBox="0 0 50 27" fill="none" xmlns="http://www.w3.org/2000/svg">
<path d="M0.697117 26.363C0.520072 26.363 0.354091 26.2927 0.199176 26.1519C0.0663921 25.9877 0 25.8118 0 25.6241C0 25.5068 0.0110654 25.4012 0.0331961 25.3074L7.83427 2.71683C7.90066 2.45879 8.03345 2.23593 8.23262 2.04826C8.45393 1.83714 8.75269 1.73157 9.12892 1.73157H14.0419C14.4182 1.73157 14.7059 1.83714 14.905 2.04826C15.1263 2.23593 15.2702 2.45879 15.3366 2.71683L23.1045 25.3074C23.1487 25.4012 23.1708 25.5068 23.1708 25.6241C23.1708 25.8118 23.0934 25.9877 22.9385 26.1519C22.8057 26.2927 22.6397 26.363 22.4405 26.363H18.3574C18.0255 26.363 17.771 26.2809 17.5939 26.1167C17.439 25.9291 17.3394 25.7649 17.2951 25.6241L16.0005 22.0349H7.13715L5.8757 25.6241C5.83144 25.7649 5.73185 25.9291 5.57694 26.1167C5.42202 26.2809 5.15645 26.363 4.78023 26.363H0.697117ZM8.49819 16.9679H14.6727L11.5854 7.67831L8.49819 16.9679Z" fill="black"/>
<path d="M26.916 26.363C26.6726 26.363 26.4734 26.2809 26.3185 26.1167C26.1636 25.9291 26.0861 25.7179 26.0861 25.4834V8.94508C26.0861 8.68703 26.1636 8.47591 26.3185 8.3117C26.4734 8.14749 26.6726 8.06538 26.916 8.06538H30.8332C31.0766 8.06538 31.2758 8.14749 31.4307 8.3117C31.5856 8.47591 31.6631 8.68703 31.6631 8.94508V25.4834C31.6631 25.7179 31.5856 25.9291 31.4307 26.1167C31.2758 26.2809 31.0766 26.363 30.8332 26.363H26.916ZM26.8828 5.42629C26.6394 5.42629 26.4402 5.34419 26.2853 5.17998C26.1304 5.01577 26.0529 4.80464 26.0529 4.5466V1.37969C26.0529 1.14511 26.1304 0.945712 26.2853 0.781501C26.4402 0.593834 26.6394 0.5 26.8828 0.5H30.8664C31.0877 0.5 31.2758 0.593834 31.4307 0.781501C31.6077 0.945712 31.6963 1.14511 31.6963 1.37969V4.5466C31.6963 4.80464 31.6077 5.01577 31.4307 5.17998C31.2758 5.34419 31.0877 5.42629 30.8664 5.42629H26.8828Z" fill="black"/>
<path d="M38.1158 26.363C37.8724 26.363 37.6732 26.2809 37.5183 26.1167C37.3634 25.9291 37.2859 25.7179 37.2859 25.4834V8.94508C37.2859 8.71049 37.3634 8.51109 37.5183 8.34688C37.6732 8.15921 37.8724 8.06538 38.1158 8.06538H41.9334C42.1768 8.06538 42.376 8.15921 42.5309 8.34688C42.7079 8.51109 42.7965 8.71049 42.7965 8.94508V10.3526C43.3719 9.62537 44.069 9.06237 44.8878 8.66357C45.7288 8.26478 46.6693 8.06538 47.7095 8.06538H49.1701C49.4135 8.06538 49.6127 8.14749 49.7676 8.3117C49.9225 8.47591 50 8.68703 50 8.94508V12.5694C50 12.804 49.9225 13.0151 49.7676 13.2028C49.6127 13.367 49.4135 13.4491 49.1701 13.4491H45.9501C45.0427 13.4491 44.3345 13.7189 43.8255 14.2584C43.3387 14.7745 43.0952 15.5135 43.0952 16.4753V25.4834C43.0952 25.7179 43.0067 25.9291 42.8297 26.1167C42.6747 26.2809 42.4756 26.363 42.2321 26.363H38.1158Z" fill="black"/>
</svg>
