<svg width="50" height="40" viewBox="0 0 50 40" fill="none" xmlns="http://www.w3.org/2000/svg">
<rect width="50" height="40" fill="#1E1E1E"/>
<g id="Section 1">
<path d="M-2598 -472C-2598 -473.105 -2597.1 -474 -2596 -474H2354C2355.1 -474 2356 -473.105 2356 -472V6955C2356 6956.1 2355.1 6957 2354 6957H-2596C-2597.1 6957 -2598 6956.1 -2598 6955V-472Z" fill="#EEEEEE"/>
<g id="Desktop 1440">
<rect width="1440" height="6764.39" transform="translate(-80 -25)" fill="white"/>
<g id="Nav">
<rect width="1440" height="90" transform="translate(-80 -25)" fill="#F8F9FF"/>
<g id="Nav Container">
<g id="Nav Wrapper">
<g id="Logo">
<g id="Logo_2">
<g id="Frame">
<path id="Vector" d="M16.4992 2.5H37.5808L22.0816 25.4729H1L16.4992 2.5Z" fill="#007AFF"/>
<path id="Vector_2" d="M17.4224 27.602L11.4192 36.5H33.5008L49 13.5271H32.7024L23.2064 27.602H17.4224Z" fill="#312ECB"/>
</g>
</g>
</g>
</g>
</g>
</g>
</g>
<path d="M-2596 -473H2354V-475H-2596V-473ZM2355 -472V6955H2357V-472H2355ZM2354 6956H-2596V6958H2354V6956ZM-2597 6955V-472H-2599V6955H-2597ZM-2596 6956C-2596.55 6956 -2597 6955.55 -2597 6955H-2599C-2599 6956.66 -2597.66 6958 -2596 6958V6956ZM2355 6955C2355 6955.55 2354.55 6956 2354 6956V6958C2355.66 6958 2357 6956.66 2357 6955H2355ZM2354 -473C2354.55 -473 2355 -472.552 2355 -472H2357C2357 -473.657 2355.66 -475 2354 -475V-473ZM-2596 -475C-2597.66 -475 -2599 -473.657 -2599 -472H-2597C-2597 -472.552 -2596.55 -473 -2596 -473V-475Z" fill="white" fill-opacity="0.1"/>
</g>
</svg>
